<svg width="70" height="69" viewBox="0 0 70 69" fill="none" xmlns="http://www.w3.org/2000/svg">
<path d="M26.25 63.25C27.8608 63.25 29.1667 61.9628 29.1667 60.375C29.1667 58.7872 27.8608 57.5 26.25 57.5C24.6392 57.5 23.3333 58.7872 23.3333 60.375C23.3333 61.9628 24.6392 63.25 26.25 63.25Z" stroke="black" stroke-width="2" stroke-linecap="round" stroke-linejoin="round"/>
<path d="M58.3333 63.25C59.9442 63.25 61.25 61.9628 61.25 60.375C61.25 58.7872 59.9442 57.5 58.3333 57.5C56.7225 57.5 55.4167 58.7872 55.4167 60.375C55.4167 61.9628 56.7225 63.25 58.3333 63.25Z" stroke="black" stroke-width="2" stroke-linecap="round" stroke-linejoin="round"/>
<path d="M2.91667 2.875H14.5833L22.4 41.3713C22.6667 42.6949 23.3972 43.8839 24.4637 44.7301C25.5301 45.5763 26.8645 46.0259 28.2333 46H56.5833C57.9521 46.0259 59.2866 45.5763 60.353 44.7301C61.4194 43.8839 62.15 42.6949 62.4167 41.3713L67.0833 17.25H17.5" stroke="black" stroke-width="2" stroke-linecap="round" stroke-linejoin="round"/>
</svg>
